<svg width="422" height="219" viewBox="0 0 422 219" fill="none" xmlns="http://www.w3.org/2000/svg">
<g clip-path="url(#clip0_1_10870)">
<path fill-rule="evenodd" clip-rule="evenodd" d="M0.5 125.752C0.5 135.188 8.149 142.837 17.585 142.837H47.035C63.541 142.837 76.921 156.218 76.921 172.725C76.921 189.231 90.303 202.612 106.809 202.612H372.373C377.995 202.612 382.553 198.054 382.553 192.432V192.431C382.553 186.809 377.995 182.251 372.373 182.251H341.212C337.252 182.251 334.042 179.041 334.042 175.081V175.076C334.042 171.115 337.252 167.906 341.212 167.906H366.421C392.887 167.906 414.341 146.452 414.341 119.986C414.341 93.5205 392.887 72.0655 366.421 72.0655H315.02C303.991 72.0655 295.05 63.1255 295.05 52.0955C295.05 41.0665 286.109 32.1245 275.08 32.1245H79.65C72.388 32.1245 66.5 38.0125 66.5 45.2745V45.2805C66.5 52.5435 72.388 58.4305 79.65 58.4305H94.3C108.172 58.4305 119.417 69.6755 119.417 83.5475C119.417 97.4195 108.172 108.667 94.3 108.667H17.585C8.149 108.667 0.5 116.316 0.5 125.752Z" fill="#4F545C" fill-opacity="0.3"/>
<path fill-rule="evenodd" clip-rule="evenodd" d="M118.073 192.112H133.485C133.479 191.986 133.455 191.862 133.455 191.735V148.303C133.455 142.269 139.702 136.784 150.284 132.434V131.682C150.284 126.168 154.77 121.682 160.284 121.682H162.936C163.136 118.832 163.954 116.154 165.278 113.786V94.8998C165.117 95.2368 164.78 95.4728 164.382 95.4728C163.829 95.4728 163.382 95.0258 163.382 94.4728V25.1118H102.725V30.2418C105.655 30.6818 108.223 32.3588 109.781 34.9768C111.626 38.0798 111.669 41.8108 109.895 44.9548C109.72 45.2648 109.395 45.4578 109.04 45.4638C108.984 45.4648 108.928 45.4648 108.872 45.4648C106.58 45.4648 104.445 44.6978 102.725 43.3358V192.112H112.075C112.402 192.112 112.677 192.279 112.86 192.52H117.288C117.471 192.279 117.747 192.112 118.073 192.112Z" fill="#36393F"/>
<path fill-rule="evenodd" clip-rule="evenodd" d="M371.854 141.507C373.001 140.662 374.586 140.611 376.315 141.359C378.172 142.162 380.305 144.053 380.601 145.976C380.934 148.137 379.911 150.517 377.996 152.038C376.852 152.946 375.536 153.418 374.25 153.419C373.605 153.419 372.968 153.299 372.364 153.057C371.259 152.613 370.533 151.256 370.264 149.131C369.963 146.749 370.26 142.678 371.854 141.507ZM365.528 159.167C365.107 159.687 364.422 159.869 363.691 159.869C362.739 159.869 361.708 159.561 361.076 159.289C359.239 158.497 359.085 157.48 359.157 156.945V156.944C359.274 156.077 359.86 155.453 360.764 155.23C362.208 154.879 364.544 155.637 365.308 156.713C366.204 157.978 365.831 158.794 365.528 159.167ZM358.92 160.279C363.384 162.725 370.91 161.453 376.364 157.245C378.611 155.51 383.61 150.759 381.494 144.117C380.336 140.484 377.673 137.224 373.994 134.936C371.335 133.284 368.476 132.414 365.833 132.414C364.933 132.414 364.059 132.515 363.226 132.72C361.596 133.121 360.16 133.904 358.92 135.041V137.472C359.085 137.404 359.254 137.347 359.43 137.307C360.308 137.108 361.267 137.276 362.134 137.784V137.785C363.633 138.666 364.433 140.253 364.125 141.733C363.831 143.15 362.363 145.184 361.106 145.917C360.374 146.344 359.74 146.493 359.213 146.493C359.108 146.493 359.016 146.477 358.92 146.466V160.279Z" fill="#72767D"/>
<path fill-rule="evenodd" clip-rule="evenodd" d="M372.249 148.88C372.465 150.587 372.943 151.134 373.109 151.201C374.26 151.662 375.587 151.396 376.752 150.472C378.094 149.406 378.847 147.721 378.625 146.28C378.486 145.378 377.206 143.923 375.522 143.195C375.211 143.061 374.606 142.838 374.007 142.838C373.663 142.838 373.321 142.912 373.039 143.119C372.563 143.468 371.902 146.141 372.249 148.88ZM360.099 144.189C360.851 143.75 361.992 142.171 362.168 141.325C362.314 140.623 361.752 139.879 361.121 139.508C360.802 139.321 360.473 139.224 360.169 139.224C360.069 139.224 359.971 139.234 359.877 139.255C359.484 139.346 359.169 139.614 358.92 139.96V144.41C359.188 144.56 359.581 144.491 360.099 144.189Z" fill="#36393F"/>
<path fill-rule="evenodd" clip-rule="evenodd" d="M363.683 157.879C363.681 157.876 363.679 157.873 363.676 157.87C363.532 157.681 362.751 157.267 361.914 157.161C361.63 157.126 361.43 157.136 361.3 157.159C361.804 157.518 362.995 157.871 363.683 157.879Z" fill="#4F545C"/>
<path fill-rule="evenodd" clip-rule="evenodd" d="M331.524 115.491C334.549 117.462 336.232 120.792 336.026 124.397C336.006 124.751 335.799 125.068 335.483 125.23C334.036 125.97 332.484 126.337 330.94 126.337C329.055 126.337 327.181 125.79 325.518 124.706C324.5 124.043 323.649 123.216 322.956 122.286V165.175C322.956 165.727 322.508 166.175 321.956 166.175C321.773 166.175 321.61 166.112 321.462 166.026V175.089C324.698 175.089 327.33 177.72 327.33 180.955V184.409C327.33 185.398 326.525 186.202 325.536 186.202H324.48C324.966 188.133 325.214 190.113 325.231 192.112H356.92V175.722C355.058 175.366 353.362 174.619 352.737 173.163C352.309 172.166 352.522 171.488 352.775 171.095C353.462 170.031 355.027 170.001 356.409 169.974C356.582 169.971 356.754 169.967 356.92 169.961V83.6396C355.321 86.1156 352.914 87.9936 349.966 88.9166C348.672 89.3216 347.356 89.5196 346.057 89.5196C342.874 89.5196 339.789 88.3296 337.351 86.0716C337.09 85.8306 336.976 85.4696 337.053 85.1226C337.969 80.9686 340.765 77.6666 344.618 76.0466C343.941 74.5896 343.608 72.9676 343.705 71.2776C343.726 70.9236 343.932 70.6066 344.249 70.4446C347.463 68.7996 351.189 68.9966 354.213 70.9686C355.299 71.6766 356.205 72.5646 356.92 73.5726V43.7026H322.956V114.388C325.818 113.424 328.929 113.799 331.524 115.491Z" fill="#36393F"/>
<path fill-rule="evenodd" clip-rule="evenodd" d="M323.239 192.112C323.221 190.108 322.929 188.129 322.398 186.202H320.527C319.997 188.128 319.705 190.107 319.688 192.112H323.239Z" fill="#4F545C"/>
<path fill-rule="evenodd" clip-rule="evenodd" d="M325.33 184.202V180.955C325.33 178.823 323.595 177.088 321.463 177.088C319.33 177.088 317.596 178.823 317.596 180.955V184.202H325.33Z" fill="#36393F"/>
<path fill-rule="evenodd" clip-rule="evenodd" d="M41.3301 192.112H43.5751V174.71H41.3301V192.112Z" fill="#36393E"/>
<path fill-rule="evenodd" clip-rule="evenodd" d="M38.2305 165.66V171.539C38.6985 171.865 39.1135 172.261 39.4635 172.709H46.6745V165.66C46.6745 163.332 44.7805 161.439 42.4535 161.439C40.1245 161.439 38.2305 163.332 38.2305 165.66Z" fill="#4F545C"/>
<path fill-rule="evenodd" clip-rule="evenodd" d="M57.5926 182.251H59.0426V179.367C59.0426 177.35 57.4016 175.708 55.3846 175.708C53.3666 175.708 51.7256 177.35 51.7256 179.367V182.251H53.1756H57.5926Z" fill="#72767D"/>
<path fill-rule="evenodd" clip-rule="evenodd" d="M54.1748 192.111H56.5918V184.25H54.1748V192.111Z" fill="#4F545C"/>
<path fill-rule="evenodd" clip-rule="evenodd" d="M36.5987 179.066H38.6647V176.183C38.6647 174.166 37.0237 172.525 35.0067 172.525C32.9897 172.525 31.3477 174.166 31.3477 176.183V179.066H33.4147H36.5987Z" fill="#36393E"/>
<path fill-rule="evenodd" clip-rule="evenodd" d="M34.415 192.111H35.599V181.066H34.415V192.111Z" fill="#4F545C"/>
<path fill-rule="evenodd" clip-rule="evenodd" d="M108.422 43.4525C109.559 41.0555 109.436 38.3095 108.061 35.9995C106.687 33.6885 104.333 32.2695 101.685 32.1245C100.547 34.5215 100.671 37.2665 102.046 39.5775C103.42 41.8885 105.774 43.3075 108.422 43.4525ZM398.22 90.0892C399.092 92.6322 401.105 94.5042 403.668 95.1892C405.272 93.0752 405.714 90.3632 404.842 87.8192C403.97 85.2762 401.957 83.4052 399.394 82.7202C397.79 84.8332 397.348 87.5462 398.22 90.0892Z" fill="#72767D"/>
<path fill-rule="evenodd" clip-rule="evenodd" d="M346.523 75.3901C349.925 74.5321 353.42 75.0731 356.345 76.8681C355.802 75.1611 354.696 73.6691 353.122 72.6431C350.87 71.1761 348.131 70.9381 345.69 71.9771C345.707 73.1901 346.003 74.3461 346.523 75.3901ZM326.61 123.03C328.863 124.499 331.602 124.735 334.042 123.697C334.006 121.044 332.685 118.634 330.432 117.166C328.18 115.698 325.442 115.461 323 116.5C323.037 119.152 324.358 121.562 326.61 123.03ZM269.42 65.0654C269.9 66.6334 271.058 67.8314 272.574 68.3614C273.533 67.0734 273.822 65.4324 273.342 63.8644C272.863 62.2964 271.705 61.0994 270.189 60.5684C269.229 61.8574 268.94 63.4984 269.42 65.0654ZM64.3675 134.118C66.9315 134.796 69.6085 134.173 71.6295 132.399C73.6495 130.625 74.6135 128.052 74.2715 125.421C71.7055 124.742 69.0305 125.365 67.0105 127.139C64.9905 128.913 64.0255 131.487 64.3675 134.118Z" fill="#4F545C"/>
<path fill-rule="evenodd" clip-rule="evenodd" d="M84.9159 79.5656C81.6979 77.6246 77.8479 77.4626 74.5059 79.1026C74.6139 82.8236 76.5519 86.1536 79.7699 88.0956C82.9889 90.0386 86.8389 90.1986 90.1809 88.5586C90.0729 84.8376 88.1349 81.5076 84.9159 79.5656Z" fill="#72767D"/>
<path fill-rule="evenodd" clip-rule="evenodd" d="M358.895 38.6519C360.041 42.1929 362.834 44.8469 366.468 45.8089C370.102 46.7669 373.843 45.8449 376.591 43.3359C375.445 39.7949 372.651 37.1399 369.018 36.1789C365.384 35.2159 361.643 36.1399 358.895 38.6519Z" fill="#4F545C"/>
<path fill-rule="evenodd" clip-rule="evenodd" d="M356.617 79.5206C353.76 77.1356 349.982 76.3786 346.393 77.5006C342.806 78.6246 340.134 81.3996 339.146 84.9886C342.004 87.3746 345.783 88.1316 349.37 87.0076C352.957 85.8846 355.63 83.1086 356.617 79.5206ZM362.692 173.855C368.918 172.876 371.928 168.351 372.615 164.774C372.93 163.134 372.681 162.113 372.468 161.798C369.785 162.933 366.984 163.533 364.371 163.533C362.403 163.533 360.543 163.199 358.921 162.512V169.586C360.703 169.088 362.5 168.303 363.172 167.292C363.479 166.833 364.099 166.709 364.559 167.013C365.019 167.319 365.144 167.939 364.838 168.399C363.406 170.552 359.619 171.535 358.058 171.857C357.602 171.952 357.041 171.962 356.447 171.974C355.921 171.984 354.869 172.004 354.504 172.169C354.516 172.216 354.537 172.283 354.576 172.374C355.263 173.977 360.221 174.244 362.692 173.855Z" fill="#72767D"/>
<path fill-rule="evenodd" clip-rule="evenodd" d="M245.272 197.112C244.166 197.112 243.11 196.897 242.136 196.52V199.65C242.136 205.324 239.927 210.657 235.914 214.67C235.908 214.676 235.903 214.683 235.897 214.689C239.977 214.346 243.933 213.905 247.741 213.377V196.751C246.957 196.983 246.13 197.112 245.272 197.112Z" fill="#36393E"/>
<path fill-rule="evenodd" clip-rule="evenodd" d="M240.053 199.65V195.363C239.936 195.276 239.817 195.192 239.705 195.1C238.719 196.997 237.469 198.766 235.914 200.319C232.292 203.943 230.299 208.755 230.299 213.873V215.094C231.178 215.041 232.051 214.981 232.921 214.919C233.395 214.325 233.892 213.747 234.437 213.202C238.059 209.579 240.053 204.767 240.053 199.65ZM183.352 199.129V197.032C181.765 196.828 180.312 196.198 179.109 195.259V212.879C182.522 213.412 186.067 213.872 189.727 214.254C189.657 214.181 189.596 214.102 189.525 214.031C185.545 210.051 183.352 204.758 183.352 199.129ZM273.427 201.72C271.849 201.72 270.564 200.435 270.564 198.857V177.141C270.564 175.563 271.849 174.277 273.427 174.277C275.006 174.277 276.291 175.563 276.291 177.141V198.857C276.291 200.435 275.006 201.72 273.427 201.72ZM278.634 175.556C278.634 172.685 276.299 170.35 273.427 170.35C270.555 170.35 268.22 172.685 268.22 175.556V200.369C268.22 203.241 270.555 205.576 273.427 205.576C276.299 205.576 278.634 203.241 278.634 200.369V175.556Z" fill="#36393E"/>
<path fill-rule="evenodd" clip-rule="evenodd" d="M190.69 194.489C189.319 195.888 187.484 196.827 185.435 197.054V199.129C185.435 204.203 187.411 208.973 190.998 212.558C191.625 213.186 192.188 213.857 192.721 214.548C193.504 214.619 194.289 214.689 195.082 214.753V206.622C195.082 202.135 193.529 197.891 190.69 194.489ZM164.492 185.059C165.049 185.059 165.503 184.605 165.503 184.048V168.943C164.819 168.78 164.146 168.613 163.48 168.443V184.048C163.48 184.605 163.934 185.059 164.492 185.059Z" fill="#36393E"/>
<path fill-rule="evenodd" clip-rule="evenodd" d="M164.493 191.768C167.588 191.768 170.104 189.25 170.104 186.157V169.959C169.253 169.785 168.415 169.603 167.587 169.419V184.048C167.587 185.754 166.199 187.141 164.493 187.141C162.786 187.141 161.399 185.754 161.399 184.048V167.89C160.543 167.656 159.703 167.417 158.881 167.172V186.157C158.881 189.25 161.399 191.768 164.493 191.768ZM199.319 179.234V179.174C198.245 180.123 196.851 180.717 195.309 180.717C194.56 180.717 193.847 180.571 193.187 180.318V182.622C193.804 183.009 194.528 183.243 195.309 183.243C197.52 183.243 199.319 181.445 199.319 179.234ZM285.012 174.769V202.97C286.48 202.173 287.78 201.348 288.939 200.502V164.752C288.939 164.177 289.405 163.711 289.981 163.711C290.556 163.711 291.022 164.177 291.022 164.752V198.814C293.451 196.567 294.775 194.187 294.775 191.734V154.086C292.03 158.018 286.538 161.584 278.929 164.582C282.549 166.543 285.012 170.373 285.012 174.769ZM230.646 179.357C231.632 177.484 232.899 175.749 234.438 174.211C234.698 173.951 234.941 173.679 235.184 173.407C235.171 173.394 235.161 173.378 235.148 173.365C234.371 173.425 233.587 173.479 232.8 173.532C231.771 175.342 231.038 177.302 230.646 179.357ZM230.299 189.23V204.731C231.327 202.58 232.702 200.586 234.438 198.85C236.022 197.267 237.273 195.447 238.204 193.482C237.167 192.047 236.549 190.292 236.549 188.392V176.819C236.549 176.278 236.441 175.766 236.281 175.278C236.156 175.41 236.043 175.549 235.914 175.678C232.292 179.301 230.299 184.111 230.299 189.23ZM199.298 174.837C199.29 174.695 199.257 174.561 199.236 174.423C198.595 174.158 197.973 173.859 197.37 173.528C196.448 173.466 195.525 173.403 194.616 173.332C193.735 174.233 193.188 175.462 193.188 176.819V178.015C193.802 178.404 194.528 178.634 195.31 178.634C197.447 178.634 199.184 176.947 199.298 174.837Z" fill="#36393E"/>
<path fill-rule="evenodd" clip-rule="evenodd" d="M249.824 195.815V213.08C251.507 212.829 253.153 212.558 254.77 212.273V184.284C254.77 183.708 255.236 183.242 255.812 183.242C256.387 183.242 256.853 183.708 256.853 184.284V211.894C258.558 211.572 260.223 211.232 261.842 210.875V195.389C261.842 194.813 262.308 194.347 262.883 194.347C263.459 194.347 263.925 194.813 263.925 195.389V210.395C267.471 209.557 270.797 208.637 273.837 207.638C273.7 207.646 273.565 207.659 273.427 207.659C269.408 207.659 266.137 204.388 266.137 200.369V175.556C266.137 171.538 269.408 168.267 273.427 168.267C277.446 168.267 280.716 171.538 280.716 175.556V200.369C280.716 202.792 279.523 204.937 277.699 206.263C279.573 205.548 281.329 204.807 282.929 204.034V174.769C282.929 170.448 280.024 166.797 276.066 165.652C273.063 166.71 269.774 167.682 266.248 168.566C264.804 170.232 263.925 172.398 263.925 174.769V189.047C263.925 189.623 263.459 190.088 262.883 190.088C262.308 190.088 261.842 189.623 261.842 189.047V174.769C261.842 172.788 262.344 170.921 263.225 169.289C261.173 169.755 259.048 170.192 256.853 170.598V176.697C256.853 177.273 256.387 177.739 255.812 177.739C255.236 177.739 254.77 177.273 254.77 176.697V170.972C254.511 171.017 254.253 171.061 253.992 171.105V188.392C253.992 191.53 252.319 194.279 249.824 195.815Z" fill="#36393E"/>
<path fill-rule="evenodd" clip-rule="evenodd" d="M274.208 177.141C274.208 176.71 273.858 176.36 273.427 176.36C273.004 176.36 272.646 176.718 272.646 177.141V198.857C272.646 199.28 273.004 199.638 273.427 199.638C273.858 199.638 274.208 199.287 274.208 198.857V177.141ZM139.269 158.031C137.684 156.765 136.406 155.448 135.456 154.087V191.735C135.456 194.207 136.803 196.604 139.269 198.867V158.031ZM151.958 164.845C150.018 164.101 148.225 163.318 146.558 162.505V183.194C146.558 183.769 146.092 184.235 145.517 184.235C144.941 184.235 144.476 183.769 144.476 183.194V161.431C143.362 160.824 142.309 160.203 141.352 159.564V200.548C142.291 201.229 143.334 201.894 144.476 202.544V188.992C144.476 188.417 144.941 187.951 145.517 187.951C146.092 187.951 146.558 188.417 146.558 188.992V203.659C148.203 204.487 150.003 205.284 151.958 206.046V164.845ZM199.319 193.213V189.442C199.319 188.866 199.785 188.401 200.361 188.401C200.936 188.401 201.402 188.866 201.402 189.442V193.213C201.402 193.788 200.936 194.254 200.361 194.254C199.785 194.254 199.319 193.788 199.319 193.213ZM204.526 175.77C203.453 175.659 202.414 175.441 201.402 175.158V179.234C201.402 182.592 198.668 185.326 195.309 185.326C194.562 185.326 193.849 185.184 193.187 184.937V188.392C193.187 190.005 192.739 191.511 191.973 192.808C195.319 196.642 197.164 201.486 197.164 206.622V214.908C199.582 215.082 202.037 215.222 204.526 215.326V175.77ZM170.702 209.697C170.702 210.273 170.236 210.738 169.66 210.738C169.085 210.738 168.619 210.273 168.619 209.697V205.184C168.619 202.407 166.361 200.15 163.585 200.15C160.81 200.15 158.553 202.407 158.553 205.184C158.553 205.759 158.087 206.225 157.512 206.225C156.936 206.225 156.47 205.759 156.47 205.184C156.47 201.26 159.662 198.067 163.585 198.067C167.51 198.067 170.702 201.26 170.702 205.184V209.697ZM177.027 192.922C176.219 191.599 175.744 190.052 175.744 188.392V171.023C174.538 170.818 173.353 170.602 172.187 170.378V186.157C172.187 190.4 168.735 193.851 164.493 193.851C160.25 193.851 156.798 190.4 156.798 186.157V166.536C155.854 166.234 154.936 165.924 154.041 165.608V206.829C157.094 207.925 160.469 208.938 164.106 209.86V209.522C164.106 207.99 162.861 206.746 161.33 206.746C160.754 206.746 160.288 206.28 160.288 205.704C160.288 205.129 160.754 204.663 161.33 204.663C164.01 204.663 166.189 206.843 166.189 209.522V210.368C169.599 211.177 173.219 211.908 177.027 212.546V192.922ZM216.675 205.155C216.099 205.155 215.633 204.689 215.633 204.113V181.757C215.633 181.182 216.099 180.716 216.675 180.716C217.251 180.716 217.717 181.182 217.717 181.757V204.113C217.717 204.689 217.251 205.155 216.675 205.155ZM228.216 182.982C228.216 180.063 228.81 177.239 229.924 174.634C228.238 175.271 226.444 175.674 224.571 175.805V189.441C224.571 190.017 224.106 190.483 223.53 190.483C222.955 190.483 222.489 190.017 222.489 189.441V175.872H212.51V183.193C212.51 183.769 212.044 184.235 211.468 184.235C210.893 184.235 210.427 183.769 210.427 183.193V175.872H206.609V215.407C207.874 215.449 209.147 215.482 210.427 215.505V194.289C210.427 193.714 210.893 193.248 211.468 193.248C212.044 193.248 212.51 193.714 212.51 194.289V215.532C213.377 215.541 214.242 215.552 215.115 215.552C215.289 215.552 215.46 215.549 215.633 215.549V212.792C215.633 212.217 216.099 211.751 216.675 211.751C217.251 211.751 217.717 212.217 217.717 212.792V215.532C219.318 215.516 220.91 215.488 222.489 215.442V195.927C222.489 195.351 222.955 194.885 223.53 194.885C224.106 194.885 224.571 195.351 224.571 195.927V215.37C225.794 215.324 227.009 215.271 228.216 215.208V182.982Z" fill="#36393E"/>
<path fill-rule="evenodd" clip-rule="evenodd" d="M177.027 192.922V212.546C177.714 212.661 178.412 212.77 179.11 212.879V195.259C178.282 194.613 177.577 193.821 177.027 192.922ZM191.974 192.808C191.613 193.419 191.184 193.985 190.691 194.489C193.53 197.891 195.082 202.136 195.082 206.622V214.753C195.772 214.809 196.469 214.858 197.165 214.908V206.622C197.165 201.486 195.32 196.642 191.974 192.808ZM185.436 199.129V197.054C185.118 197.09 184.795 197.111 184.468 197.111C184.089 197.111 183.719 197.079 183.353 197.032V199.129C183.353 204.758 185.546 210.051 189.526 214.031C189.597 214.102 189.658 214.181 189.728 214.254C190.719 214.357 191.715 214.456 192.722 214.547C192.189 213.857 191.625 213.186 190.998 212.558C187.412 208.973 185.436 204.203 185.436 199.129ZM161.33 204.664C160.754 204.664 160.288 205.129 160.288 205.705C160.288 206.281 160.754 206.747 161.33 206.747C162.861 206.747 164.106 207.991 164.106 209.522V209.86C164.79 210.034 165.487 210.202 166.189 210.369V209.522C166.189 206.844 164.01 204.664 161.33 204.664Z" fill="#4F545C"/>
<path fill-rule="evenodd" clip-rule="evenodd" d="M163.586 198.067C159.663 198.067 156.471 201.26 156.471 205.184C156.471 205.759 156.937 206.225 157.512 206.225C158.087 206.225 158.553 205.759 158.553 205.184C158.553 202.407 160.811 200.15 163.586 200.15C166.361 200.15 168.62 202.407 168.62 205.184V209.697C168.62 210.273 169.086 210.738 169.661 210.738C170.237 210.738 170.702 210.273 170.702 209.697V205.184C170.702 201.26 167.51 198.067 163.586 198.067ZM154.041 165.608C153.333 165.358 152.634 165.105 151.958 164.845V206.046C152.637 206.311 153.327 206.574 154.041 206.83V165.608ZM164.493 193.851C168.736 193.851 172.187 190.4 172.187 186.157V170.378C171.483 170.243 170.794 170.101 170.104 169.96V186.157C170.104 189.25 167.588 191.768 164.493 191.768C161.399 191.768 158.881 189.25 158.881 186.157V167.173C158.177 166.964 157.477 166.753 156.798 166.536V186.157C156.798 190.4 160.25 193.851 164.493 193.851Z" fill="#4F545C"/>
<path fill-rule="evenodd" clip-rule="evenodd" d="M164.493 187.141C166.199 187.141 167.587 185.754 167.587 184.048V169.419C166.886 169.263 166.187 169.106 165.504 168.943V184.048C165.504 184.605 165.05 185.058 164.493 185.058C163.935 185.058 163.481 184.605 163.481 184.048V168.443C162.775 168.263 162.085 168.077 161.399 167.89V184.048C161.399 185.754 162.786 187.141 164.493 187.141ZM145.517 184.235C146.092 184.235 146.558 183.769 146.558 183.193V162.505C145.837 162.152 145.143 161.795 144.475 161.431V183.193C144.475 183.769 144.941 184.235 145.517 184.235ZM146.558 188.993C146.558 188.417 146.092 187.951 145.517 187.951C144.941 187.951 144.475 188.417 144.475 188.993V202.545C145.138 202.922 145.831 203.294 146.558 203.66V188.993ZM141.352 159.564C140.602 159.063 139.919 158.55 139.269 158.031V198.867C139.89 199.437 140.592 199.997 141.352 200.548V159.564ZM206.609 175.873H206.499C205.833 175.873 205.175 175.837 204.526 175.769V215.326C205.219 215.355 205.911 215.385 206.609 215.408V175.873ZM201.402 179.234V175.158C200.662 174.952 199.936 174.714 199.235 174.423C199.257 174.561 199.29 174.695 199.298 174.837C199.184 176.947 197.447 178.634 195.309 178.634C194.527 178.634 193.802 178.404 193.187 178.015V180.318C193.847 180.571 194.56 180.717 195.309 180.717C196.851 180.717 198.245 180.123 199.319 179.174V179.234C199.319 181.445 197.52 183.243 195.309 183.243C194.528 183.243 193.804 183.009 193.187 182.622V184.937C193.849 185.184 194.562 185.326 195.309 185.326C198.668 185.326 201.402 182.592 201.402 179.234ZM211.469 193.248C210.893 193.248 210.427 193.714 210.427 194.29V215.505C211.119 215.518 211.815 215.525 212.511 215.532V194.29C212.511 193.714 212.045 193.248 211.469 193.248ZM211.469 184.235C212.045 184.235 212.511 183.769 212.511 183.193V175.873H210.427V183.193C210.427 183.769 210.893 184.235 211.469 184.235ZM217.717 181.758C217.717 181.183 217.251 180.717 216.675 180.717C216.1 180.717 215.634 181.183 215.634 181.758V204.114C215.634 204.69 216.1 205.156 216.675 205.156C217.251 205.156 217.717 204.69 217.717 204.114V181.758ZM216.675 211.751C216.099 211.751 215.633 212.217 215.633 212.792V215.549C216.331 215.547 217.023 215.539 217.717 215.532V212.792C217.717 212.217 217.251 211.751 216.675 211.751ZM201.402 193.213V189.442C201.402 188.866 200.936 188.401 200.36 188.401C199.785 188.401 199.319 188.866 199.319 189.442V193.213C199.319 193.788 199.785 194.254 200.36 194.254C200.936 194.254 201.402 193.788 201.402 193.213ZM223.53 190.483C224.106 190.483 224.572 190.017 224.572 189.441V175.805C224.129 175.836 223.688 175.873 223.238 175.873H222.489V189.441C222.489 190.017 222.955 190.483 223.53 190.483ZM223.53 194.886C222.955 194.886 222.489 195.352 222.489 195.928V215.442C223.186 215.422 223.879 215.396 224.572 215.37V195.928C224.572 195.352 224.106 194.886 223.53 194.886ZM235.915 200.319C237.47 198.766 238.72 196.997 239.706 195.1C239.138 194.628 238.637 194.082 238.205 193.483C237.274 195.447 236.022 197.268 234.438 198.851C232.703 200.587 231.328 202.581 230.3 204.732V189.231C230.3 184.111 232.293 179.301 235.915 175.679C236.044 175.55 236.157 175.41 236.282 175.278C236.051 174.574 235.681 173.936 235.184 173.407C234.941 173.679 234.698 173.951 234.438 174.211C232.9 175.749 231.632 177.485 230.646 179.357C231.039 177.302 231.772 175.342 232.801 173.532C232.634 173.544 232.469 173.557 232.302 173.568C231.542 173.982 230.742 174.326 229.924 174.635C228.811 177.24 228.217 180.064 228.217 182.983V215.209C228.913 215.173 229.609 215.136 230.3 215.094V213.873C230.3 208.756 232.293 203.944 235.915 200.319ZM242.136 199.65V196.52C241.386 196.229 240.687 195.838 240.053 195.363V199.65C240.053 204.767 238.06 209.579 234.438 213.202C233.893 213.747 233.396 214.325 232.922 214.919C233.92 214.847 234.912 214.771 235.898 214.689C235.904 214.683 235.908 214.676 235.914 214.67C239.927 210.657 242.136 205.324 242.136 199.65ZM247.741 196.75V213.376C248.439 213.28 249.137 213.183 249.824 213.08V195.815C249.179 196.212 248.482 196.53 247.741 196.75ZM256.853 184.284C256.853 183.708 256.387 183.242 255.812 183.242C255.236 183.242 254.77 183.708 254.77 184.284V212.273C255.471 212.149 256.166 212.024 256.853 211.894V184.284ZM255.812 177.739C256.387 177.739 256.853 177.273 256.853 176.697V170.598C256.164 170.725 255.473 170.851 254.77 170.972V176.697C254.77 177.273 255.236 177.739 255.812 177.739ZM282.929 174.769V204.034C283.652 203.685 284.348 203.331 285.012 202.97V174.769C285.012 170.373 282.549 166.543 278.928 164.582C278.002 164.947 277.053 165.305 276.066 165.652C280.024 166.797 282.929 170.448 282.929 174.769ZM261.842 189.047C261.842 189.623 262.308 190.089 262.883 190.089C263.459 190.089 263.925 189.623 263.925 189.047V174.769C263.925 172.399 264.804 170.233 266.248 168.567C265.259 168.815 264.252 169.056 263.225 169.289C262.344 170.922 261.842 172.788 261.842 174.769V189.047ZM262.883 194.347C262.308 194.347 261.842 194.813 261.842 195.389V210.874C262.547 210.719 263.237 210.557 263.925 210.395V195.389C263.925 194.813 263.459 194.347 262.883 194.347Z" fill="#4F545C"/>
<path fill-rule="evenodd" clip-rule="evenodd" d="M273.427 205.577C270.555 205.577 268.22 203.242 268.22 200.37V175.557C268.22 172.685 270.555 170.35 273.427 170.35C276.299 170.35 278.634 172.685 278.634 175.557V200.37C278.634 203.242 276.299 205.577 273.427 205.577ZM280.717 200.37V175.557C280.717 171.538 277.446 168.268 273.427 168.268C269.408 168.268 266.138 171.538 266.138 175.557V200.37C266.138 204.389 269.408 207.66 273.427 207.66C273.566 207.66 273.701 207.646 273.838 207.639C275.185 207.196 276.463 206.734 277.699 206.264C279.524 204.937 280.717 202.793 280.717 200.37Z" fill="#4F545C"/>
<path fill-rule="evenodd" clip-rule="evenodd" d="M273.427 199.638C273.004 199.638 272.646 199.28 272.646 198.857V177.141C272.646 176.719 273.004 176.361 273.427 176.361C273.859 176.361 274.208 176.71 274.208 177.141V198.857C274.208 199.288 273.859 199.638 273.427 199.638ZM276.291 177.141C276.291 175.563 275.006 174.278 273.427 174.278C271.849 174.278 270.564 175.563 270.564 177.141V198.857C270.564 200.435 271.849 201.721 273.427 201.721C275.006 201.721 276.291 200.435 276.291 198.857V177.141ZM291.022 164.753C291.022 164.177 290.556 163.711 289.98 163.711C289.405 163.711 288.939 164.177 288.939 164.753V200.503C289.699 199.949 290.403 199.387 291.022 198.815V164.753ZM207.617 76.3344L214.176 88.2954C214.397 88.6984 214.778 88.7424 214.931 88.7424C215.084 88.7424 215.465 88.6984 215.686 88.2954L222.245 76.3344C223.906 73.3064 223.51 69.5104 221.26 66.8894C219.674 65.0424 217.367 63.9814 214.931 63.9814C212.495 63.9814 210.188 65.0424 208.602 66.8894C206.352 69.5104 205.956 73.3064 207.617 76.3344Z" fill="#4F545C"/>
<path fill-rule="evenodd" clip-rule="evenodd" d="M247.868 172.021H236.632C237.817 173.275 238.549 174.962 238.549 176.819V188.392C238.549 192.097 241.564 195.112 245.269 195.112C248.977 195.112 251.992 192.097 251.992 188.392V171.557C250.662 171.853 249.285 172.021 247.868 172.021ZM193.104 172.021H181.868C180.45 172.021 179.073 171.853 177.744 171.557V188.392C177.744 192.097 180.758 195.112 184.464 195.112C188.172 195.112 191.187 192.097 191.187 188.392V176.819C191.187 174.962 191.919 173.275 193.104 172.021Z" fill="#72767D"/>
<path fill-rule="evenodd" clip-rule="evenodd" d="M168.868 109.203C172.27 106 176.838 104.021 181.868 104.021H247.868C252.898 104.021 257.466 106 260.868 109.203V108.474C260.868 101.305 255.036 95.4736 247.868 95.4736H181.868C174.7 95.4736 168.868 101.305 168.868 108.474V109.203Z" fill="#4F545C"/>
<path fill-rule="evenodd" clip-rule="evenodd" d="M246.297 140.443C246.873 139.846 247.823 139.832 248.418 140.407C250.158 142.089 253.574 142.09 255.314 140.407C255.909 139.832 256.859 139.846 257.435 140.443C258.011 141.039 257.995 141.988 257.399 142.564C255.951 143.964 253.909 144.663 251.866 144.663C249.823 144.663 247.781 143.964 246.333 142.564C245.737 141.988 245.721 141.039 246.297 140.443ZM183.402 142.564C181.954 143.964 179.911 144.664 177.869 144.664C175.826 144.664 173.784 143.964 172.336 142.564C171.74 141.988 171.724 141.038 172.3 140.443C172.876 139.846 173.826 139.832 174.421 140.407C176.161 142.09 179.577 142.089 181.317 140.407C181.912 139.832 182.862 139.846 183.438 140.443C184.014 141.039 183.998 141.988 183.402 142.564ZM164.935 121.681H167.277C167.829 121.681 168.277 122.129 168.277 122.681C168.277 123.234 167.829 123.681 167.277 123.681H160.284C155.873 123.681 152.284 127.27 152.284 131.681V142.223C152.284 146.634 155.873 150.223 160.284 150.223H167.277C167.829 150.223 168.277 150.671 168.277 151.223C168.277 151.775 167.829 152.223 167.277 152.223H164.867V153.021C164.867 162.395 172.493 170.021 181.867 170.021H192.814C189.53 166.604 187.498 161.975 187.498 156.873V142.302C187.498 137.891 191.087 134.302 195.498 134.302H222.919C223.471 134.302 223.919 134.75 223.919 135.302H228.166C228.166 134.75 228.614 134.302 229.166 134.302H234.237C238.648 134.302 242.237 137.891 242.237 142.302V145.046C242.766 144.972 243.302 144.921 243.851 144.921C250.318 144.921 255.581 150.183 255.581 156.651C255.581 163.119 250.318 168.381 243.851 168.381H238.319C237.882 168.953 237.419 169.503 236.921 170.021H247.867C257.241 170.021 264.867 162.395 264.867 153.021V152.223H262.874C262.322 152.223 261.874 151.775 261.874 151.223C261.874 150.671 262.322 150.223 262.874 150.223H269.867C274.278 150.223 277.867 146.634 277.867 142.223V131.681C277.867 127.27 274.278 123.681 269.867 123.681H262.874C262.322 123.681 261.874 123.234 261.874 122.681C261.874 122.129 262.322 121.681 262.874 121.681H264.799C264.112 112.933 256.789 106.021 247.867 106.021H181.867C172.945 106.021 165.622 112.933 164.935 121.681Z" fill="#72767D"/>
<path fill-rule="evenodd" clip-rule="evenodd" d="M222.919 136.302H195.498C192.19 136.302 189.498 138.993 189.498 142.302V146.169C190.724 144.126 192.955 142.747 195.498 142.747H234.237C236.548 142.747 238.602 143.888 239.878 145.628C239.998 145.585 240.115 145.536 240.237 145.497V142.302C240.237 138.993 237.545 136.302 234.237 136.302H229.166C228.614 136.302 228.166 135.854 228.166 135.302H223.919C223.919 135.854 223.471 136.302 222.919 136.302Z" fill="#72767D"/>
<path fill-rule="evenodd" clip-rule="evenodd" d="M209.498 162.382C211.148 162.382 212.498 163.732 212.498 165.382C212.498 167.032 211.148 168.382 209.498 168.382H203.498C201.848 168.382 200.498 167.032 200.498 165.382C200.498 163.732 201.848 162.382 203.498 162.382H209.498ZM234.237 142.748H195.498C192.955 142.748 190.724 144.127 189.498 146.17V156.874C189.498 166.248 197.124 173.874 206.498 173.874H223.237C228.169 173.874 232.604 171.749 235.713 168.382H226.754C226.687 168.382 226.625 168.361 226.561 168.349C226.454 168.361 226.348 168.382 226.237 168.382H220.237C218.587 168.382 217.237 167.032 217.237 165.382C217.237 163.732 218.587 162.382 220.237 162.382H226.237C227.534 162.382 228.635 163.222 229.051 164.381C230.556 162.814 232.12 160.315 232.12 156.652C232.12 151.58 235.362 147.262 239.878 145.629C238.602 143.889 236.548 142.748 234.237 142.748Z" fill="#B9BBBE"/>
<path fill-rule="evenodd" clip-rule="evenodd" d="M226.237 162.381H220.237C218.587 162.381 217.237 163.731 217.237 165.381C217.237 167.031 218.587 168.381 220.237 168.381H226.237C226.348 168.381 226.454 168.36 226.562 168.348C226.182 168.272 225.868 167.993 225.779 167.604C225.675 167.149 225.9 166.683 226.32 166.481C226.429 166.426 227.717 165.768 229.051 164.38C228.635 163.221 227.534 162.381 226.237 162.381ZM203.498 162.381C201.848 162.381 200.498 163.731 200.498 165.381C200.498 167.031 201.848 168.381 203.498 168.381H209.498C211.148 168.381 212.498 167.031 212.498 165.381C212.498 163.731 211.148 162.381 209.498 162.381H203.498ZM156.284 141.223C156.284 143.984 158.523 146.223 161.284 146.223H164.277C164.83 146.223 165.277 145.775 165.277 145.223V128.682C165.277 128.13 164.83 127.682 164.277 127.682H161.284C158.523 127.682 156.284 129.92 156.284 132.682V141.223ZM265.874 146.223H268.867C271.628 146.223 273.867 143.984 273.867 141.223V132.682C273.867 129.92 271.628 127.682 268.867 127.682H265.874C265.322 127.682 264.874 128.13 264.874 128.682V145.223C264.874 145.775 265.322 146.223 265.874 146.223Z" fill="#4F545C"/>
<path fill-rule="evenodd" clip-rule="evenodd" d="M229.869 166.381H243.851C249.216 166.381 253.581 162.016 253.581 156.651C253.581 151.286 249.216 146.921 243.851 146.921C238.486 146.921 234.12 151.286 234.12 156.651C234.12 161.468 231.821 164.595 229.869 166.381Z" fill="#B9BBBE"/>
<path fill-rule="evenodd" clip-rule="evenodd" d="M373.039 143.118C373.321 142.911 373.664 142.837 374.008 142.837C374.606 142.837 375.212 143.06 375.522 143.194C377.206 143.922 378.486 145.377 378.625 146.28C378.847 147.721 378.095 149.405 376.753 150.471C375.587 151.395 374.26 151.661 373.11 151.201C372.944 151.134 372.465 150.586 372.249 148.879C371.903 146.14 372.563 143.468 373.039 143.118ZM372.365 153.056C372.969 153.299 373.606 153.418 374.251 153.418C375.537 153.417 376.853 152.945 377.997 152.037C379.912 150.516 380.935 148.137 380.602 145.975C380.306 144.052 378.173 142.161 376.316 141.358C374.587 140.611 373.002 140.661 371.855 141.506C370.261 142.678 369.964 146.748 370.265 149.13C370.534 151.255 371.26 152.613 372.365 153.056ZM360.764 155.23C359.86 155.453 359.275 156.077 359.158 156.943C359.086 157.479 359.24 158.497 361.076 159.289C361.708 159.561 362.739 159.869 363.691 159.869C364.423 159.869 365.107 159.687 365.528 159.167C365.831 158.793 366.204 157.978 365.308 156.712C364.545 155.637 362.208 154.878 360.764 155.23ZM330.433 117.166C332.685 118.634 334.007 121.044 334.043 123.697C331.603 124.735 328.864 124.499 326.611 123.03C324.904 121.918 323.732 120.264 323.248 118.374C322.963 117.258 323.751 116.136 324.889 115.958C326.79 115.659 328.748 116.068 330.433 117.166ZM321.463 166.025C321.611 166.112 321.773 166.174 321.957 166.174C322.509 166.174 322.957 165.727 322.957 165.174V122.286C323.65 123.215 324.5 124.042 325.518 124.706C327.182 125.79 329.056 126.337 330.941 126.337C332.485 126.337 334.036 125.97 335.483 125.23C335.796 125.07 336.007 124.745 336.027 124.394C336.232 120.79 334.549 117.461 331.525 115.491C329.579 114.222 327.342 113.693 325.138 113.916C323.96 114.035 322.957 113.052 322.957 111.867V43.7032V41.1122C322.957 40.5602 322.509 40.1122 321.957 40.1122C321.405 40.1122 320.957 40.5602 320.957 41.1122V45.1122V165.174C320.957 165.543 321.166 165.852 321.463 166.025ZM42.7256 81.5016C43.2776 81.5016 43.7256 81.0536 43.7256 80.5016V78.7526C43.7256 78.2006 43.2776 77.7526 42.7256 77.7526C42.1736 77.7526 41.7256 78.2006 41.7256 78.7526V80.5016C41.7256 81.0536 42.1736 81.5016 42.7256 81.5016ZM164.382 95.4733C164.78 95.4733 165.117 95.2363 165.278 94.9003C165.34 94.7693 165.382 94.6273 165.382 94.4733V1.1123C165.382 0.559305 164.934 0.112305 164.382 0.112305C163.83 0.112305 163.382 0.559305 163.382 1.1123V25.1123V94.4733C163.382 95.0253 163.83 95.4733 164.382 95.4733ZM357.92 27.1135C358.472 27.1135 358.92 26.6655 358.92 26.1135V23.8305C358.92 23.2785 358.472 22.8305 357.92 22.8305C357.368 22.8305 356.92 23.2785 356.92 23.8305V26.1135C356.92 26.6655 357.368 27.1135 357.92 27.1135ZM399.395 82.7204C401.957 83.4054 403.97 85.2764 404.842 87.8204C404.853 87.8544 404.866 87.8884 404.876 87.9224C406.27 92.1634 399.736 94.3744 398.246 90.1654L398.22 90.0894C397.348 87.5464 397.79 84.8334 399.395 82.7204ZM403.86 97.2834C403.923 97.2964 403.987 97.3024 404.049 97.3024C404.335 97.3024 404.609 97.1794 404.801 96.9614C407.182 94.2474 407.905 90.5874 406.734 87.1714C405.564 83.7564 402.748 81.3084 399.202 80.6254C398.852 80.5554 398.495 80.6804 398.261 80.9484C395.88 83.6624 395.158 87.3224 396.328 90.7384C397.499 94.1534 400.314 96.6004 403.86 97.2834ZM270.189 60.569C271.705 61.099 272.863 62.297 273.343 63.865C273.823 65.433 273.534 67.073 272.575 68.362C271.059 67.831 269.9 66.633 269.42 65.066C268.94 63.498 269.23 61.857 270.189 60.569ZM272.702 70.476C272.775 70.492 272.85 70.501 272.923 70.501C273.196 70.501 273.461 70.389 273.653 70.185C275.407 68.314 276.006 65.732 275.255 63.279C274.504 60.827 272.563 59.023 270.062 58.455C269.716 58.378 269.354 58.486 269.111 58.746C267.356 60.617 266.757 63.198 267.508 65.651C268.259 68.104 270.201 69.907 272.702 70.476ZM55.9624 50.7883C56.9574 49.4853 58.4754 48.7793 60.0664 48.7943C60.5174 50.3363 60.2174 51.9753 59.2224 53.2783C58.2274 54.5813 56.7044 55.2993 55.1194 55.2713C54.6684 53.7303 54.9674 52.0913 55.9624 50.7883ZM54.2654 57.2093C54.5874 57.2523 54.9064 57.2733 55.2234 57.2733C57.4124 57.2733 59.4524 56.2723 60.8124 54.4923C62.3694 52.4543 62.7054 49.8253 61.7114 47.4603C61.5734 47.1333 61.2724 46.9033 60.9204 46.8563C58.3784 46.5203 55.9294 47.5363 54.3734 49.5743C52.8164 51.6133 52.4804 54.2413 53.4744 56.6063C53.6124 56.9333 53.9134 57.1633 54.2654 57.2093ZM67.0103 127.139C67.9433 126.32 69.0153 125.746 70.1513 125.432C72.5763 124.763 74.7043 127.186 73.7273 129.504C73.2693 130.591 72.5623 131.58 71.6293 132.399C69.6083 134.173 66.9313 134.796 64.3673 134.118C64.0263 131.487 64.9903 128.913 67.0103 127.139ZM63.1603 135.84C64.2363 136.208 65.3353 136.389 66.4223 136.389C68.7863 136.389 71.0903 135.534 72.9483 133.902C75.6623 131.519 76.8533 127.984 76.1353 124.445C76.0653 124.097 75.8153 123.813 75.4793 123.698C72.0633 122.53 68.4043 123.254 65.6913 125.636C62.9773 128.019 61.7863 131.554 62.5043 135.093C62.5743 135.441 62.8243 135.725 63.1603 135.84ZM282.651 77.4699C284.939 74.4869 288.465 72.9329 292.173 73.2389C293.431 76.7419 292.843 80.5499 290.555 83.5329C288.267 86.5159 284.741 88.0699 281.032 87.7639C279.775 84.2609 280.363 80.4519 282.651 77.4699ZM280.187 89.6829C280.783 89.7629 281.376 89.8029 281.963 89.8029C285.946 89.8029 289.66 87.9859 292.142 84.7499C294.99 81.0369 295.613 76.2419 293.808 71.9249C293.671 71.5969 293.371 71.3669 293.019 71.3199C288.38 70.6989 283.912 72.5399 281.064 76.2529C278.216 79.9659 277.593 84.7599 279.398 89.0779C279.535 89.4059 279.835 89.6359 280.187 89.6829Z" fill="#202225"/>
<path fill-rule="evenodd" clip-rule="evenodd" d="M354.575 172.374C354.536 172.283 354.515 172.216 354.504 172.169C354.868 172.004 355.92 171.984 356.447 171.974C357.04 171.963 357.601 171.952 358.057 171.858C359.618 171.535 363.406 170.553 364.837 168.4C365.143 167.94 365.018 167.319 364.558 167.014C364.098 166.709 363.478 166.833 363.172 167.292C362.9 167.701 362.445 168.073 361.881 168.403C360.57 169.172 358.92 168.168 358.92 166.648V162.513C360.542 163.199 362.402 163.534 364.37 163.534C366.984 163.534 369.784 162.933 372.467 161.799C372.68 162.114 372.929 163.135 372.615 164.774C371.928 168.352 368.917 172.876 362.691 173.855C360.22 174.244 355.262 173.977 354.575 172.374ZM369.018 36.1788C372.135 37.0038 374.634 39.0748 376.005 41.8818C376.418 42.7278 376.139 43.7788 375.363 44.3088C372.782 46.0698 369.585 46.6308 366.468 45.8088C363.35 44.9838 360.851 42.9128 359.481 40.1048C359.068 39.2598 359.346 38.2088 360.122 37.6788C362.703 35.9158 365.9 35.3528 369.018 36.1788ZM358.92 144.41V139.96C359.168 139.614 359.483 139.346 359.877 139.256C359.971 139.234 360.068 139.224 360.168 139.224C360.472 139.224 360.802 139.321 361.121 139.509C361.751 139.88 362.313 140.623 362.167 141.325C361.992 142.171 360.85 143.75 360.098 144.189C359.581 144.491 359.188 144.56 358.92 144.41ZM363.226 132.72C364.059 132.515 364.933 132.414 365.833 132.414C368.475 132.414 371.335 133.284 373.994 134.936C377.673 137.224 380.336 140.484 381.494 144.117C383.61 150.759 378.611 155.51 376.364 157.245C370.909 161.453 363.384 162.725 358.92 160.279V146.466C359.016 146.477 359.108 146.493 359.213 146.493C359.74 146.493 360.373 146.344 361.106 145.917C362.363 145.184 363.831 143.15 364.125 141.732C364.433 140.252 363.633 138.666 362.134 137.785C362.134 137.784 362.134 137.784 362.134 137.784C361.266 137.276 360.307 137.107 359.43 137.307C359.254 137.347 359.085 137.404 358.92 137.472V135.041C360.159 133.904 361.596 133.121 363.226 132.72ZM317.596 184.203V180.956C317.596 178.823 319.33 177.089 321.462 177.089C323.595 177.089 325.329 178.823 325.329 180.956V184.203H317.596ZM319.687 192.112C319.705 190.107 319.996 188.128 320.526 186.203H322.398C322.929 188.129 323.22 190.108 323.238 192.112H319.687ZM268.283 165.864C265.735 166.557 263.633 163.92 264.827 161.566C266.131 158.998 266.867 156.095 266.867 153.021V152.224H269.867C275.39 152.224 279.867 147.747 279.867 142.224V139.343C279.867 137.087 282.266 135.644 284.267 136.684C290.926 140.145 294.774 144.117 294.774 148.303C294.774 155.171 284.447 161.471 268.283 165.864ZM294.774 191.735C294.774 194.188 293.45 196.568 291.021 198.815C290.403 199.387 289.698 199.949 288.938 200.503C287.779 201.349 286.479 202.174 285.011 202.971C284.348 203.332 283.651 203.686 282.929 204.035C281.328 204.808 279.573 205.549 277.699 206.264C276.462 206.734 275.184 207.196 273.837 207.639C270.797 208.638 267.471 209.558 263.924 210.396C263.237 210.559 262.546 210.72 261.842 210.875C260.222 211.233 258.557 211.573 256.852 211.895C256.165 212.024 255.47 212.15 254.77 212.273C253.153 212.559 251.507 212.83 249.824 213.081C249.136 213.184 248.439 213.281 247.741 213.377C243.933 213.906 239.977 214.346 235.897 214.689C234.912 214.771 233.92 214.848 232.921 214.919C232.051 214.981 231.179 215.041 230.299 215.095C229.608 215.137 228.912 215.173 228.216 215.209C227.009 215.272 225.794 215.326 224.571 215.371C223.878 215.397 223.186 215.423 222.489 215.443C220.909 215.489 219.317 215.517 217.716 215.533C217.023 215.54 216.33 215.548 215.633 215.55C215.46 215.55 215.288 215.554 215.115 215.554C214.242 215.554 213.376 215.542 212.51 215.533C211.814 215.526 211.118 215.519 210.427 215.506C209.147 215.483 207.873 215.451 206.608 215.409C205.91 215.385 205.218 215.355 204.525 215.327C202.036 215.223 199.582 215.082 197.164 214.909C196.468 214.858 195.771 214.81 195.081 214.754C194.288 214.69 193.504 214.62 192.721 214.548C191.714 214.457 190.718 214.358 189.727 214.255C186.067 213.873 182.522 213.413 179.109 212.879C178.411 212.77 177.713 212.662 177.027 212.546C173.218 211.909 169.599 211.178 166.188 210.369C165.486 210.202 164.789 210.034 164.106 209.86C160.469 208.938 157.093 207.925 154.04 206.83C153.326 206.574 152.637 206.312 151.957 206.047C150.003 205.285 148.202 204.487 146.557 203.66C145.83 203.294 145.138 202.922 144.475 202.545C143.334 201.895 142.29 201.229 141.351 200.548C140.591 199.997 139.889 199.437 139.268 198.868C136.802 196.605 135.455 194.207 135.455 191.735V159.743C135.455 157.798 137.697 156.77 139.213 157.988C139.232 158.002 139.25 158.017 139.268 158.032C139.918 158.551 140.601 159.063 141.351 159.564C142.308 160.204 143.361 160.824 144.475 161.432C145.142 161.795 145.836 162.153 146.557 162.505C148.224 163.318 150.017 164.102 151.957 164.846C152.634 165.105 153.332 165.358 154.04 165.608C154.935 165.925 155.853 166.235 156.797 166.537C157.476 166.754 158.176 166.964 158.88 167.173C159.702 167.418 160.542 167.657 161.398 167.891C162.084 168.078 162.774 168.264 163.48 168.444C164.146 168.613 164.819 168.781 165.503 168.944C166.186 169.107 166.885 169.264 167.586 169.42C168.414 169.604 169.252 169.786 170.103 169.96C170.793 170.102 171.482 170.244 172.186 170.379C173.353 170.603 174.537 170.818 175.743 171.024V188.393C175.743 190.053 176.218 191.6 177.027 192.922C177.576 193.821 178.282 194.613 179.109 195.26C180.312 196.199 181.765 196.829 183.352 197.033C183.718 197.08 184.088 197.112 184.467 197.112C184.794 197.112 185.117 197.091 185.435 197.055C187.484 196.828 189.319 195.889 190.69 194.49C191.183 193.986 191.612 193.419 191.973 192.809C192.739 191.511 193.187 190.005 193.187 188.393V184.937V182.622V180.318V178.015V176.82C193.187 175.463 193.734 174.234 194.615 173.332C195.524 173.404 196.447 173.466 197.369 173.528C197.972 173.86 198.595 174.158 199.235 174.424C199.935 174.715 200.662 174.952 201.402 175.159C202.414 175.441 203.453 175.659 204.525 175.77C205.174 175.837 205.832 175.874 206.498 175.874H206.608H210.427H212.51H222.489H223.237C223.687 175.874 224.129 175.837 224.571 175.806C226.444 175.675 228.238 175.272 229.923 174.636C230.741 174.327 231.541 173.982 232.301 173.568L232.31 173.565C233.261 173.502 234.21 173.437 235.148 173.365C235.16 173.378 235.17 173.395 235.183 173.408C235.679 173.936 236.05 174.574 236.281 175.279C236.44 175.767 236.549 176.279 236.549 176.82V188.393C236.549 190.293 237.167 192.048 238.203 193.483C238.636 194.082 239.137 194.628 239.705 195.1C239.817 195.193 239.936 195.276 240.053 195.363C240.687 195.839 241.385 196.229 242.136 196.52C243.11 196.897 244.165 197.112 245.272 197.112C246.13 197.112 246.957 196.983 247.741 196.751C248.482 196.531 249.179 196.213 249.824 195.816C252.319 194.28 253.992 191.531 253.992 188.393V171.106C254.252 171.062 254.511 171.018 254.77 170.973C255.472 170.852 256.163 170.726 256.852 170.599C259.048 170.193 261.172 169.756 263.224 169.29C264.252 169.057 265.259 168.815 266.248 168.567C269.774 167.683 273.062 166.71 276.065 165.653C277.052 165.306 278.002 164.948 278.928 164.583C283.957 162.602 288.061 160.372 291.058 157.953C292.554 156.746 294.774 157.816 294.774 159.738V191.735ZM150.284 139.383V142.224C150.284 147.747 154.761 152.224 160.284 152.224H162.867V153.021C162.867 156.037 163.575 158.888 164.831 161.422C166.002 163.783 163.89 166.4 161.35 165.696C145.531 161.311 135.455 155.085 135.455 148.303C135.455 144.134 139.271 140.177 145.881 136.726C147.881 135.682 150.284 137.126 150.284 139.383ZM193.104 172.021C191.919 173.276 191.187 174.962 191.187 176.82V188.154C191.187 191.57 188.738 194.619 185.35 195.055C181.251 195.582 177.743 192.389 177.743 188.393V174.99C177.743 173.299 179.143 171.895 180.831 171.992C181.174 172.011 181.519 172.021 181.867 172.021H193.104ZM232.326 163.379C233.351 161.657 234.12 159.437 234.12 156.653C234.121 152.864 236.179 149.289 239.665 147.804C246.946 144.703 253.971 150.237 253.564 157.23C253.262 162.428 248.735 166.382 243.529 166.382H234.05C232.505 166.382 231.536 164.706 232.326 163.379ZM236.632 172.021H247.867C248.216 172.021 248.561 172.011 248.904 171.992C250.592 171.895 251.992 173.299 251.992 174.99V188.154C251.992 191.57 249.543 194.619 246.156 195.055C242.057 195.583 238.549 192.39 238.549 188.393V176.82C238.549 174.962 237.816 173.276 236.632 172.021ZM152.284 131.682C152.284 127.264 155.866 123.682 160.284 123.682H167.277C167.829 123.682 168.277 123.234 168.277 122.682C168.277 122.13 167.829 121.682 167.277 121.682H166.861C165.819 121.682 165.004 120.736 165.206 119.715C166.749 111.919 173.626 106.021 181.867 106.021H247.867C256.109 106.021 262.986 111.919 264.529 119.715C264.731 120.736 263.916 121.682 262.874 121.682C262.322 121.682 261.874 122.13 261.874 122.682C261.874 123.234 262.322 123.682 262.874 123.682H269.867C274.286 123.682 277.867 127.264 277.867 131.682V142.224C277.867 146.642 274.286 150.224 269.867 150.224H262.874C262.322 150.224 261.874 150.671 261.874 151.224C261.874 151.776 262.322 152.224 262.874 152.224H264.07C264.51 152.224 264.867 152.581 264.867 153.021C264.867 162.41 257.256 170.021 247.867 170.021H236.921C237.419 169.503 237.883 168.954 238.32 168.382H243.507C249.612 168.382 254.955 163.86 255.528 157.783C256.184 150.809 250.692 144.922 243.851 144.922H243.766C242.926 144.923 242.237 144.235 242.237 143.394V142.303C242.237 137.884 238.656 134.303 234.237 134.303H229.166C228.614 134.303 228.166 134.75 228.166 135.303C228.166 135.855 228.614 136.303 229.166 136.303H234.237C237.551 136.303 240.237 138.989 240.237 142.303V143.511C239.665 144.461 239.217 145.207 238.645 146.157C234.783 148.078 232.12 152.055 232.12 156.652C232.12 160.314 230.556 162.814 229.052 164.381C227.718 165.769 226.429 166.427 226.32 166.481C225.9 166.684 225.676 167.15 225.78 167.605C225.868 167.994 226.182 168.273 226.562 168.349C226.626 168.361 226.687 168.382 226.754 168.382H235.713C232.605 171.749 228.17 173.874 223.237 173.874H206.498C197.11 173.874 189.498 166.262 189.498 156.874V146.169V142.303C189.498 138.989 192.185 136.303 195.498 136.303H222.919C223.471 136.303 223.919 135.855 223.919 135.303C223.919 134.75 223.471 134.303 222.919 134.303H195.498C191.08 134.303 187.498 137.884 187.498 142.303V156.874C187.498 161.222 188.974 165.227 191.444 168.43C191.944 169.08 191.459 170.021 190.639 170.021H181.867C172.479 170.021 164.867 162.41 164.867 153.021C164.867 152.581 165.225 152.224 165.665 152.224H167.277C167.829 152.224 168.277 151.776 168.277 151.224C168.277 150.671 167.829 150.224 167.277 150.224H160.284C155.866 150.224 152.284 146.642 152.284 142.224V131.682ZM168.867 108.474C168.867 101.305 174.699 95.4738 181.867 95.4738H247.867C255.036 95.4738 260.867 101.305 260.867 108.474V109.203C257.465 106 252.898 104.021 247.867 104.021H181.867C176.837 104.021 172.27 106 168.867 109.203V108.474ZM349.369 87.0078C346.006 88.0608 342.475 87.4618 339.692 85.4168C339.356 85.1698 339.215 84.7198 339.35 84.3248C340.471 81.0588 343.03 78.5538 346.392 77.5008C349.756 76.4498 353.287 77.0478 356.069 79.0918C356.406 79.3388 356.547 79.7898 356.411 80.1848C355.29 83.4508 352.731 85.9558 349.369 87.0078ZM353.121 72.6438C353.734 73.0428 354.276 73.5138 354.742 74.0398C355.406 74.7908 354.612 75.9358 353.658 75.6228C351.39 74.8768 348.933 74.7828 346.522 75.3908C346.123 74.5878 345.855 73.7188 345.745 72.8098C345.683 72.3018 345.995 71.8378 346.484 71.6868C348.712 71.0038 351.111 71.3338 353.121 72.6438ZM420.115 192.112H369.92C363.845 192.112 358.92 187.187 358.92 181.112V175.966C359.383 175.995 359.838 176.009 360.268 176.009C361.453 176.009 362.462 175.916 363.002 175.831C370.032 174.726 373.916 169.475 374.646 164.761C374.744 164.128 374.778 163.535 374.752 162.992C374.688 161.632 375.395 160.364 376.521 159.598C376.883 159.353 377.238 159.097 377.585 158.828C383.041 154.618 385.16 149.035 383.399 143.51C382.098 139.424 379.133 135.776 375.05 133.238C371.03 130.739 366.544 129.843 362.748 130.778L362.706 130.788C360.782 131.266 358.92 129.81 358.92 127.826V42.9988C360.622 45.2918 363.059 46.9758 365.956 47.7418C367.076 48.0388 368.204 48.1838 369.319 48.1838C372.7 48.1838 375.949 46.8468 378.422 44.3488C378.676 44.0928 378.777 43.7098 378.684 43.3618C377.47 38.8488 374.048 35.4408 369.53 34.2458C366.832 33.5318 364.087 33.6978 361.612 34.6528C360.312 35.1548 358.92 34.1768 358.92 32.7838V31.1118C358.92 30.5598 358.472 30.1118 357.92 30.1118C357.367 30.1118 356.92 30.5598 356.92 31.1118V69.5438C356.92 70.9168 355.395 71.7418 354.245 70.9898L354.213 70.9688C351.193 68.9988 347.473 68.8008 344.261 70.4388C343.941 70.6028 343.724 70.9348 343.704 71.2928C343.61 72.9778 343.943 74.5938 344.618 76.0468C340.77 77.6648 337.976 80.9608 337.056 85.1078C336.978 85.4588 337.096 85.8368 337.361 86.0818C339.798 88.3328 342.878 89.5198 346.057 89.5198C347.356 89.5198 348.672 89.3218 349.966 88.9168C351.523 88.4298 352.929 87.6758 354.145 86.7068C355.268 85.8128 356.92 86.5818 356.92 88.0168V166.386C355.868 167.8 355.128 168.796 354.077 170.21C353.535 170.367 353.073 170.634 352.775 171.095C352.521 171.488 352.309 172.166 352.737 173.163C353.099 174.005 353.819 174.61 354.721 175.04C356.084 175.687 356.92 177.098 356.92 178.607V185.112C356.92 188.978 353.786 192.112 349.92 192.112H327.136C326.092 192.112 325.233 191.309 325.149 190.268C325.038 188.896 324.816 187.538 324.48 186.203H325.536C326.527 186.203 327.329 185.4 327.329 184.409V180.956C327.329 177.715 324.703 175.089 321.463 175.089H321.462C318.222 175.089 315.596 177.715 315.596 180.956V184.41C315.596 185.4 316.398 186.203 317.388 186.203H318.445C318.109 187.537 317.887 188.895 317.776 190.268C317.692 191.309 316.833 192.112 315.789 192.112H304.745C300.328 192.112 296.749 188.533 296.752 184.116C296.761 171.478 296.774 148.303 296.774 148.303C296.774 142.255 290.496 136.759 279.867 132.403V131.682C279.867 126.159 275.39 121.682 269.867 121.682H269.451C268.025 121.682 266.759 120.699 266.48 119.301C265.896 116.37 264.637 113.682 262.867 111.402V108.474C262.867 100.189 256.152 93.4738 247.867 93.4738H181.867C173.583 93.4738 166.867 100.189 166.867 108.474V111.402C166.466 111.92 166.093 112.458 165.746 113.016C165.587 113.27 165.424 113.523 165.277 113.786C164.336 115.47 163.65 117.312 163.261 119.261C162.978 120.674 161.725 121.682 160.284 121.682C154.761 121.682 150.284 126.159 150.284 131.682V132.435C139.701 136.785 133.455 142.27 133.455 148.303C133.455 148.303 133.468 171.479 133.476 184.118C133.479 188.533 129.901 192.112 125.485 192.112H118.073C117.746 192.112 117.471 192.279 117.288 192.52C117.161 192.688 117.073 192.886 117.073 193.112C117.073 193.665 117.52 194.112 118.073 194.112H133.799C137.482 207.434 171.864 217.554 215.115 217.554C258.365 217.554 292.746 207.434 296.429 194.112H319.479H323.446H420.115C420.667 194.112 421.115 193.665 421.115 193.112C421.115 192.56 420.667 192.112 420.115 192.112ZM101.684 32.1248C104.332 32.2698 106.686 33.6888 108.06 35.9998C108.69 37.0578 109.057 38.2078 109.161 39.3728C109.385 41.8898 106.611 43.5598 104.503 42.1678C103.52 41.5188 102.678 40.6428 102.045 39.5778C100.67 37.2678 100.547 34.5218 101.684 32.1248ZM53.1753 182.251H51.7253V179.368C51.7253 177.351 53.3663 175.709 55.3843 175.709C57.4013 175.709 59.0423 177.351 59.0423 179.368V182.251H57.5923H53.1753ZM55.7263 192.112H55.0403C54.5623 192.112 54.1753 191.725 54.1753 191.247V184.251H56.5923V191.247C56.5923 191.725 56.2043 192.112 55.7263 192.112ZM42.7093 192.112H42.1943C41.7173 192.112 41.3293 191.725 41.3293 191.247V174.71H43.5743V191.247C43.5743 191.725 43.1863 192.112 42.7093 192.112ZM38.2293 171.54V165.661C38.2293 163.333 40.1233 161.439 42.4523 161.439C44.7803 161.439 46.6733 163.333 46.6733 165.661V172.71H39.4633C39.1123 172.261 38.6983 171.866 38.2293 171.54ZM38.4643 192.112C37.9873 192.112 37.5983 191.725 37.5983 191.247V181.067H39.3293V191.247C39.3293 191.725 38.9413 192.112 38.4643 192.112ZM33.4143 179.067H31.3473V176.184C31.3473 174.167 32.9893 172.526 35.0063 172.526C37.0233 172.526 38.6643 174.167 38.6643 176.184V179.067H36.5983H33.4143ZM34.4143 192.112H35.5983V181.067H34.4143V192.112ZM79.7703 88.0958C76.5513 86.1538 74.6133 82.8238 74.5053 79.1028C77.8473 77.4628 81.6983 77.6248 84.9153 79.5658C87.2853 80.9948 88.9603 83.1768 89.7233 85.7118C90.2383 87.4268 89.0883 89.1808 87.3273 89.5048C84.7663 89.9758 82.1023 89.5028 79.7703 88.0958ZM112.075 192.112H102.725H102.381V43.0398C102.495 43.1388 102.606 43.2428 102.725 43.3358C104.444 44.6978 106.579 45.4648 108.871 45.4648C108.927 45.4648 108.983 45.4648 109.039 45.4638C109.394 45.4578 109.719 45.2648 109.894 44.9558C111.668 41.8108 111.625 38.0808 109.78 34.9778C108.164 32.2618 105.461 30.5588 102.395 30.1988C102.39 30.1918 102.387 30.1878 102.381 30.1818V21.1118C102.381 20.5598 101.933 20.1118 101.381 20.1118C100.829 20.1118 100.381 20.5598 100.381 21.1118V30.4038C100.315 30.4678 100.258 30.5408 100.211 30.6228C98.4373 33.7668 98.4803 37.4978 100.326 40.6008C100.342 40.6288 100.364 40.6528 100.381 40.6808V41.1118V188.112C100.381 190.321 98.5903 192.112 96.3813 192.112C94.1723 192.112 92.3813 190.321 92.3813 188.112V41.1118V37.7888C92.3813 37.2368 91.9333 36.7888 91.3813 36.7888C90.8293 36.7888 90.3813 37.2368 90.3813 37.7888V82.2908C89.3183 80.5098 87.8193 78.9818 85.9493 77.8538C81.9453 75.4378 77.1143 75.3508 73.0253 77.6208C72.7143 77.7938 72.5123 78.1288 72.5043 78.4838C72.4023 83.1598 74.7323 87.3928 78.7373 89.8088C80.8083 91.0578 83.0993 91.6838 85.3943 91.6838H85.4463C88.1453 91.6718 90.3813 93.7498 90.3813 96.4488V190.112C90.3813 191.217 89.4853 192.112 88.3813 192.112H59.4573C58.9793 192.112 58.5923 191.725 58.5923 191.247V184.251H60.0423C60.5943 184.251 61.0423 183.803 61.0423 183.251V179.566C61.0423 176.69 58.9803 174.124 56.1283 173.757C52.6773 173.314 49.7253 176.003 49.7253 179.368V183.251C49.7253 183.803 50.1723 184.251 50.7253 184.251H52.1753V191.247C52.1753 191.725 51.7873 192.112 51.3093 192.112H46.4393C45.9623 192.112 45.5743 191.725 45.5743 191.247V174.71H47.6733C48.2263 174.71 48.6733 174.262 48.6733 173.71V165.661C48.6733 163.094 47.1113 160.887 44.8873 159.938C44.1603 159.627 43.7253 158.871 43.7253 158.08V91.0208C43.7253 90.4688 43.2773 90.0208 42.7253 90.0208C42.1723 90.0208 41.7253 90.4688 41.7253 91.0208V157.915C41.7253 158.756 41.1993 159.512 40.4043 159.79C37.9763 160.637 36.2293 162.948 36.2293 165.661V170.663C35.3713 170.473 34.4453 170.461 33.4783 170.75C30.9673 171.5 29.3473 173.952 29.3473 176.572V180.067C29.3473 180.619 29.7953 181.067 30.3473 181.067H32.4143V191.247C32.4143 191.725 32.0263 192.112 31.5493 192.112H10.1143C9.56226 192.112 9.11426 192.56 9.11426 193.112C9.11426 193.665 9.56226 194.112 10.1143 194.112H112.075C112.627 194.112 113.075 193.665 113.075 193.112C113.075 192.886 112.986 192.688 112.859 192.521C112.677 192.279 112.401 192.112 112.075 192.112Z" fill="#202225"/>
<path fill-rule="evenodd" clip-rule="evenodd" d="M208.602 66.8899C210.188 65.0419 212.496 63.9819 214.931 63.9819C217.367 63.9819 219.674 65.0419 221.26 66.8899C223.51 69.5109 223.906 73.3069 222.245 76.3349L215.686 88.2959C215.465 88.6989 215.084 88.7429 214.931 88.7429C214.778 88.7429 214.397 88.6989 214.176 88.2959L207.617 76.3349C205.956 73.3069 206.352 69.5109 208.602 66.8899ZM212.422 89.2579C212.933 90.1879 213.871 90.7429 214.932 90.7429C215.992 90.7429 216.93 90.1869 217.44 89.2579L223.999 77.2969C226.058 73.5419 225.567 68.8359 222.778 65.5869C220.81 63.2959 217.951 61.9819 214.931 61.9819C211.912 61.9819 209.052 63.2959 207.084 65.5869C204.295 68.8369 203.804 73.5419 205.863 77.2969L212.422 89.2579ZM177.869 144.664C179.911 144.664 181.954 143.964 183.402 142.564C183.998 141.989 184.014 141.039 183.438 140.443C182.862 139.847 181.912 139.832 181.317 140.407C179.577 142.089 176.161 142.09 174.421 140.407C173.827 139.832 172.876 139.847 172.3 140.443C171.724 141.039 171.741 141.988 172.336 142.564C173.784 143.964 175.826 144.664 177.869 144.664ZM251.867 144.664C253.909 144.664 255.952 143.964 257.4 142.565C257.995 141.989 258.012 141.039 257.436 140.444C256.859 139.847 255.909 139.832 255.315 140.408C253.575 142.091 250.159 142.09 248.419 140.408C247.824 139.832 246.874 139.847 246.298 140.444C245.722 141.039 245.738 141.989 246.334 142.565C247.782 143.964 249.824 144.664 251.867 144.664ZM384.361 116.451H384.871C385.423 116.451 385.871 116.899 385.871 117.451V117.961C385.871 118.514 386.319 118.961 386.871 118.961C387.424 118.961 387.871 118.514 387.871 117.961V117.451C387.871 116.899 388.319 116.451 388.871 116.451H389.382C389.934 116.451 390.382 116.003 390.382 115.451C390.382 114.899 389.934 114.451 389.382 114.451H388.871C388.319 114.451 387.871 114.003 387.871 113.451V112.941C387.871 112.389 387.424 111.941 386.871 111.941C386.319 111.941 385.871 112.389 385.871 112.941V113.451C385.871 114.003 385.423 114.451 384.871 114.451H384.361C383.809 114.451 383.361 114.899 383.361 115.451C383.361 116.003 383.809 116.451 384.361 116.451ZM146.675 68.1521C147.509 68.1521 148.185 68.8281 148.185 69.6621C148.185 70.2151 148.633 70.6621 149.185 70.6621C149.738 70.6621 150.185 70.2151 150.185 69.6621C150.185 68.8281 150.861 68.1521 151.695 68.1521C152.247 68.1521 152.695 67.7041 152.695 67.1521C152.695 66.6001 152.247 66.1521 151.695 66.1521C150.861 66.1521 150.185 65.4761 150.185 64.6421C150.185 64.0901 149.738 63.6421 149.185 63.6421C148.633 63.6421 148.185 64.0901 148.185 64.6421C148.185 65.4761 147.509 66.1521 146.675 66.1521C146.123 66.1521 145.675 66.6001 145.675 67.1521C145.675 67.7041 146.123 68.1521 146.675 68.1521ZM171.411 76.5764C172.245 76.5764 172.921 77.2524 172.921 78.0864C172.921 78.6384 173.369 79.0864 173.921 79.0864C174.473 79.0864 174.921 78.6384 174.921 78.0864C174.921 77.2524 175.597 76.5764 176.431 76.5764C176.983 76.5764 177.431 76.1284 177.431 75.5764C177.431 75.0244 176.983 74.5764 176.431 74.5764C175.597 74.5764 174.921 73.9004 174.921 73.0664C174.921 72.5144 174.473 72.0664 173.921 72.0664C173.369 72.0664 172.921 72.5144 172.921 73.0664C172.921 73.9004 172.245 74.5764 171.411 74.5764C170.859 74.5764 170.411 75.0244 170.411 75.5764C170.411 76.1284 170.859 76.5764 171.411 76.5764ZM141.752 93.3431C142.008 93.3431 142.264 93.2451 142.459 93.0501L143.642 91.8671C144.033 91.4761 144.033 90.8431 143.642 90.4531C143.252 90.0621 142.619 90.0621 142.228 90.4531L141.045 91.6361C140.654 92.0271 140.654 92.6591 141.045 93.0501C141.24 93.2451 141.496 93.3431 141.752 93.3431ZM135.835 99.2596C136.091 99.2596 136.347 99.1616 136.542 98.9666L137.726 97.7826C138.116 97.3926 138.116 96.7596 137.726 96.3686C137.335 95.9786 136.702 95.9786 136.312 96.3686L135.128 97.5526C134.737 97.9436 134.737 98.5756 135.128 98.9666C135.323 99.1616 135.579 99.2596 135.835 99.2596ZM142.228 98.9666C142.423 99.1616 142.679 99.2596 142.935 99.2596C143.191 99.2596 143.447 99.1616 143.642 98.9666C144.033 98.5766 144.033 97.9436 143.642 97.5526L142.459 96.3686C142.068 95.9786 141.436 95.9786 141.045 96.3686C140.654 96.7586 140.654 97.3926 141.045 97.7826L142.228 98.9666ZM136.312 93.0501C136.507 93.2451 136.763 93.3431 137.019 93.3431C137.275 93.3431 137.531 93.2451 137.726 93.0501C138.117 92.6591 138.117 92.0261 137.726 91.6361L136.542 90.4531C136.152 90.0621 135.518 90.0621 135.128 90.4531C134.738 90.8431 134.738 91.4771 135.128 91.8671L136.312 93.0501ZM376.114 103.07C375.281 103.07 374.605 102.392 374.605 101.56C374.605 100.727 375.281 100.05 376.114 100.05C376.947 100.05 377.624 100.727 377.624 101.56C377.624 102.392 376.947 103.07 376.114 103.07ZM376.114 98.0496C374.179 98.0496 372.605 99.6246 372.605 101.56C372.605 103.495 374.179 105.07 376.114 105.07C378.05 105.07 379.624 103.495 379.624 101.56C379.624 99.6246 378.05 98.0496 376.114 98.0496Z" fill="#202225"/>
</g>
<defs>
<clipPath id="clip0_1_10870">
<rect width="421" height="218" fill="white" transform="translate(0.5 0.112305)"/>
</clipPath>
</defs>
</svg>
